<?xml version="1.0" encoding="utf-8"?>
<!-- Generator: Adobe Illustrator 27.5.0, SVG Export Plug-In . SVG Version: 6.00 Build 0)  -->
<svg version="1.1" xmlns="http://www.w3.org/2000/svg" xmlns:xlink="http://www.w3.org/1999/xlink" x="0px" y="0px"
	 viewBox="0 0 500 500" style="enable-background:new 0 0 500 500;" xml:space="preserve">
<g id="Floor">
	<path id="Floor_12_" style="fill:#F5F5F5;" d="M102.202,451.875c81.644,44.96,214.015,44.961,295.657,0.001
		c81.644-44.961,81.644-117.855,0-162.815c-81.644-44.96-214.015-44.96-295.658-0.001C20.557,334.02,20.557,406.915,102.202,451.875
		z"/>
</g>
<g id="Shadows">
	<path id="Shadow_3_" style="fill:#E0E0E0;" d="M85.535,420.156l6.124,3.536c1.674,0.966,4.388,0.966,6.062,0L278.514,319.31
		c1.674-0.966,1.674-2.534,0-3.5l-6.124-3.536c-1.674-0.966-4.388-0.966-6.062,0L85.535,416.656
		C83.861,417.622,83.861,419.189,85.535,420.156z"/>
	<path id="Shadow_15_" style="fill:#E0E0E0;" d="M351.069,390.494c17.689,9.241,46.368,9.241,64.057,0
		c17.689-9.241,17.689-24.223,0-33.464c-17.689-9.241-46.368-9.241-64.057,0C333.38,366.271,333.38,381.254,351.069,390.494z"/>
	<path id="Shadow_16_" style="fill:#E0E0E0;" d="M329.35,371.845c5.322,2.78,13.95,2.78,19.272,0c5.322-2.78,5.322-7.288,0-10.068
		c-5.322-2.78-13.95-2.78-19.272,0C324.028,364.557,324.028,369.065,329.35,371.845z"/>
</g>
<g id="Plants_1_">
	<g id="Plants">
		<g id="XMLID_2370_">
			<g id="XMLID_2387_">
				<path id="XMLID_2388_" style="fill:#27DEBF;" d="M93.029,373.133c0.242-8.878-2.227-23.77-10.976-38.633
					c-9.363-15.905-21.721-26.561-32.106-23.322c-9.673,3.017-7.545,16.145,6.996,30.44c10.204,10.031,20.535,22.763,25.255,37.304
					l8.183,18.737L93.029,373.133z"/>
			</g>
			<g id="XMLID_2379_">
				<path id="XMLID_2386_" style="fill:#37474F;" d="M93.029,373.133c0.242-8.878-2.227-23.77-10.976-38.633
					c-9.363-15.905-21.721-26.561-32.106-23.322c-9.673,3.017-7.545,16.145,6.996,30.44c10.204,10.031,20.535,22.763,25.255,37.304
					l8.183,18.737L93.029,373.133z"/>
			</g>
			<g id="XMLID_2371_">
				<path id="XMLID_2378_" style="fill:#FFFFFF;" d="M91.413,379.745c-0.255-0.028-0.479-0.211-0.543-0.475
					c-6.229-25.358-22.019-52.043-36.729-62.068c-0.288-0.197-0.362-0.588-0.166-0.875c0.198-0.289,0.588-0.361,0.875-0.166
					c14.938,10.182,30.948,37.183,37.243,62.808c0.083,0.338-0.123,0.679-0.46,0.761C91.557,379.749,91.484,379.753,91.413,379.745z
					"/>
			</g>
		</g>
		<g id="XMLID_2366_">
			<path id="XMLID_2369_" style="fill:#455A64;" d="M93.118,401.886c0,0-6.212,6.216-17.277,8.65
				c-11.065,2.435-16.314-2.614-16.314-2.614s3.774-10.739,9.942-14.057c0,0-10.624,2.833-18.913,9.108c0,0-6.815,0.51-10.151-9.739
				c0,0,3.668-6.506,17.026-10.699c0,0-8.373-1.584-20.081,2.157c-0.87,0.407-5.473-12.827-6.993-18.968s0.98-6.225,5.744-7.806
				c4.764-1.581,21.202-3.377,24.391-0.895c3.19,2.482,5.272,11.495,5.272,11.495s2.592-5.325,1.623-9.882
				c0,0,4.763-1.939,10.315-0.368c5.552,1.572,5.364,4.243,5.6,8.2c0.252,4.232,0.002,7.067-0.926,11.882
				c0,0,3.562-3.474,2.98-15.461c0,0,7.726,5.853,11,11.083C99.631,379.204,99.726,393.394,93.118,401.886z"/>
			<g id="XMLID_2367_">
				<path id="XMLID_2368_" style="fill:#FFFFFF;" d="M93.155,402.514c-0.233,0.014-0.465-0.104-0.587-0.322
					c-10.131-18.19-44.943-37.954-57.087-39.572c-0.344-0.046-0.587-0.363-0.541-0.708c0.046-0.345,0.367-0.583,0.708-0.541
					c12.344,1.646,47.728,21.728,58.019,40.209c0.17,0.304,0.061,0.687-0.243,0.855C93.338,402.483,93.247,402.508,93.155,402.514z"
					/>
			</g>
		</g>
	</g>
	<g id="Plants_6_">
		<g id="XMLID_2493_">
			<g id="XMLID_2496_">
				<path id="XMLID_2501_" style="fill:#27DEBF;" d="M401.013,345.806c0,0,1.385-12.183,7.446-21.639
					c6.06-9.456,14.387-15.357,22.157-15.972c7.77-0.615,14.045,6.534,5.732,11.443c-8.313,4.909-23.083,9.918-29.88,28.279
					L401.013,345.806z"/>
				<path id="XMLID_2500_" style="opacity:0.1;" d="M401.013,345.806c0,0,1.385-12.183,7.446-21.639
					c6.06-9.456,14.387-15.357,22.157-15.972c7.77-0.615,14.045,6.534,5.732,11.443c-8.313,4.909-23.083,9.918-29.88,28.279
					L401.013,345.806z"/>
			</g>
			<g id="XMLID_2494_">
				<path id="XMLID_2495_" style="fill:#FFFFFF;" d="M403.291,342.642c-0.028-0.005-0.055-0.013-0.082-0.024
					c-0.212-0.086-0.315-0.328-0.228-0.54c8.199-20.193,23.808-28.625,30.917-30.262c0.222-0.053,0.445,0.088,0.498,0.311
					c0.051,0.224-0.088,0.446-0.311,0.498c-6.963,1.603-22.264,9.889-30.335,29.765C403.674,342.576,403.48,342.677,403.291,342.642
					z"/>
			</g>
		</g>
		<g id="XMLID_2466_">
			<g id="XMLID_2490_">
				<g id="XMLID_2491_">
					<path id="XMLID_2492_" style="fill:#27DEBF;" d="M444.795,342.881c-0.704,1.586-2.435,2.412-4.047,3.061
						c-1.602,0.643-3.359,1.345-4.229,2.845c-1.754,3.029,1.125,7.288-0.757,10.238c-0.79,1.237-2.26,1.888-3.704,2.147
						c-1.2,0.225-2.423,0.223-3.64,0.325c-0.586-0.012-1.165-0.055-1.73-0.134c-1.67-0.243-3.482-0.321-5.012,0.534
						c-2.407,1.353-3.147,4.393-4.609,6.737c-1.753,2.807-4.853,4.644-8.109,5.087c-1.082,0.143-3.095,0.338-4.196-0.277
						c-0.087-0.048-0.158-0.092-0.228-0.145c-0.008-0.001-0.014-0.01-0.02-0.02c-0.151-0.171-0.342-0.388-0.423-0.506
						c-0.02-0.02-0.032-0.046-0.043-0.071c-0.427-1.571,0.27-3.205,0.298-4.828c0.003-0.103,0.004-0.198-0.002-0.294
						c-0.067-1.886-0.12-3.761-0.164-5.643c-0.088-3.462-0.127-6.93-0.103-10.395c0.024-2.25-0.247-4.714,0.705-6.833
						c1.055-2.331,3.676-2.383,4.667-4.67c0.397-0.912,0.608-1.889,0.992-2.811c1.146-2.704,3.924-4.648,6.864-4.791
						c4.576-0.233,8.684,3.473,13.255,3.136c1.184-0.093,2.338-0.453,3.504-0.668c3.708-0.694,7.992,0.361,10.077,3.498
						C445.011,339.713,445.432,341.442,444.795,342.881z"/>
				</g>
			</g>
			<g id="XMLID_2488_">
				<path id="XMLID_2489_" style="fill:#FFFFFF;" d="M403.673,365.492c-0.01-0.002-0.021-0.005-0.031-0.007
					c-0.208-0.055-0.332-0.269-0.276-0.478c6.324-23.726,31.322-27.155,37.171-26.733c0.212,0.017,0.376,0.202,0.362,0.417
					c-0.015,0.215-0.202,0.377-0.417,0.362c-5.721-0.413-30.174,2.942-36.362,26.156
					C404.067,365.407,403.871,365.529,403.673,365.492z"/>
			</g>
			<g id="XMLID_2479_">
				<path id="XMLID_2487_" style="fill:#FFFFFF;" d="M431.449,353.47c-0.076-0.014-0.148-0.05-0.206-0.109
					c-0.063-0.064-6.438-6.349-17.012-4.792c-0.213,0.028-0.412-0.116-0.444-0.329c-0.031-0.214,0.117-0.412,0.329-0.443
					c10.983-1.615,17.616,4.949,17.682,5.016c0.152,0.154,0.15,0.4-0.003,0.552C431.7,353.456,431.57,353.492,431.449,353.47z"/>
			</g>
		</g>
	</g>
</g>
<g id="Checklist">
	<g id="XMLID_482_">
		<g id="XMLID_478_">
			<path id="XMLID_2890_" style="fill:#27DEBF;" d="M95.789,420.373l-3.794-2.191c-1.196-0.69-2.165-2.369-2.165-3.75
				l-0.002-281.117c0-1.381,0.969-3.06,2.165-3.75L266.393,28.876c1.196-0.69,3.134-0.69,4.33,0l3.795,2.191
				c1.196,0.69,2.165,2.369,2.165,3.75v281.117c0,1.381-0.969,3.06-2.165,3.75L100.119,420.373
				C98.924,421.064,96.985,421.064,95.789,420.373z"/>
			<path id="XMLID_2868_" style="opacity:0.4;fill:#FFFFFF;" d="M276.659,34.466c-0.15-1.12-1.06-1.53-2.14-0.9l-174.4,100.69
				c-0.6,0.34-1.13,0.93-1.53,1.61l-8.13-4.69c0.4-0.68,0.93-1.26,1.53-1.61l174.4-100.69c1.2-0.69,3.14-0.69,4.33,0l3.8,2.19
				C275.608,31.696,276.518,33.166,276.659,34.466z"/>
			<path id="XMLID_2870_" style="opacity:0.15;" d="M99.739,420.546c-0.04,0.03-0.09,0.04-0.13,0.05c-0.07,0.03-0.14,0.06-0.22,0.08
				c-0.03,0.01-0.06,0.02-0.09,0.03c-0.13,0.04-0.26,0.07-0.4,0.1h-0.05c-0.86,0.16-1.81,0.09-2.58-0.21
				c-0.17-0.06-0.33-0.14-0.48-0.22l-3.8-2.19c-1.19-0.7-2.16-2.37-2.16-3.75v-281.12c0-0.69,0.24-1.46,0.63-2.14l8.13,4.69
				c-0.4,0.68-0.64,1.45-0.64,2.14v281.12c0,0.49,0.12,0.88,0.33,1.14c0.27,0.33,0.68,0.47,1.16,0.37
				C99.538,420.616,99.639,420.586,99.739,420.546z"/>
		</g>
		<g id="XMLID_509_">
			<path id="XMLID_514_" style="fill:#455A64;" d="M222.208,80.636c-0.1-0.06-0.21-0.12-0.32-0.19l-3.6-2.07
				c-0.84-0.53-2.16-1.04-4.2-1.49c-0.62-0.14-1.18-0.3-1.67-0.46c-0.61-0.21-1.13-0.42-1.59-0.65l0.27-0.33v-0.01l-4.07-2.35v0.01
				c-0.32-0.18-0.66-0.33-1.07-0.43c-1.53-0.37-3.82,0.52-6.11,0.26c-1.45-0.16-2.9-0.79-4.15-2.47c-1.39-1.87-2.23-5.15-3.46-7.86
				l1.07-1.58c-0.11-0.07-0.22-0.13-0.34-0.19l-3.73-2.16c-0.6-0.35-1.29-0.56-2.08-0.56c-1.09,0-2.37,0.38-3.91,1.27
				c-8.93,5.16-9.23,17.41-12.45,25.46c-3.22,8.07-7.77,10.58-10.25,14.05c-2.5,3.46-2.65,6.03-8.14,13.6s-5.71,9.42-5.71,10.85
				v11.28l4.06,2.34l73.09-42.21L222.208,80.636z M155.189,124.106c-0.95,0.54-1.73-0.19-1.73-1.66c0-1.46,0.78-3.11,1.73-3.66
				c0.95-0.55,1.72,0.2,1.72,1.67C156.909,121.916,156.139,123.556,155.189,124.106z M187.298,92.456c-2.4,1.39-4.5,0.6-5.63-1.72
				c-2.83,0.55-4.94-2.19-4.94-6.89c0-5.54,2.92-11.71,6.52-13.79c2.4-1.39,4.5-0.6,5.62,1.72c2.84-0.56,4.94,2.17,4.94,6.89
				C193.809,84.206,190.899,90.376,187.298,92.456z M211.568,91.546c-0.95,0.55-1.72-0.19-1.72-1.65c0-1.47,0.77-3.1,1.72-3.65
				c0.96-0.55,1.73,0.19,1.73,1.66C213.298,89.366,212.528,90.996,211.568,91.546z"/>
			<path id="XMLID_499_" style="opacity:0.5;fill:#37474F;" d="M154.817,126.123l-7.86-4.538c-0.23,0.755-0.259,1.278-0.259,1.751
				v11.28l4.06,2.34l4.059-2.344V126.123z"/>
			<path id="XMLID_495_" style="opacity:0.5;fill:#37474F;" d="M162.942,112.052l4.062-9.381l-6.455-3.786
				c0,0-0.001,0.001-0.001,0.001c-1.895,2.623-2.444,4.739-4.989,8.905L162.942,112.052z"/>
			<path id="XMLID_489_" style="opacity:0.5;fill:#37474F;" d="M179.19,93.291l0.527-2.734c-1.795-0.752-2.988-3.177-2.988-6.711
				c0-4.704,2.109-9.853,4.948-12.576l-5.63-3.249c-2.401,5.466-3.288,11.916-5.248,16.815c-0.415,1.041-0.853,1.986-1.306,2.856
				L179.19,93.291z"/>
			<path id="XMLID_2735_" style="fill:#37474F;" d="M222.208,80.636c-0.1-0.06-0.21-0.12-0.32-0.19c-0.84-0.43-2.04-0.84-3.75-1.22
				c-3.24-0.73-4.62-1.87-5.72-2.8c-0.45-0.38-0.85-0.72-1.32-0.98c-0.32-0.19-0.67-0.34-1.09-0.44c-2.46-0.59-6.94,2.09-10.16-2.08
				c-0.03-0.04-0.07-0.09-0.1-0.13c-2.25-3.03-3.07-9.79-6.44-11.78c-0.11-0.07-0.22-0.13-0.34-0.19c-1.39-0.65-3.2-0.53-5.67,0.89
				c-8.93,5.16-9.23,17.41-12.45,25.46c-3.22,8.07-7.77,10.58-10.25,14.05c-2.5,3.46-2.64,6.03-8.14,13.6
				c-5.49,7.57-5.7,9.42-5.7,10.85v11.28l73.09-42.21v-11.27C223.848,82.546,223.758,81.556,222.208,80.636z M159.238,126.446
				c-0.95,0.55-1.72-0.19-1.72-1.66c0-1.46,0.77-3.11,1.72-3.66c0.96-0.55,1.72,0.2,1.72,1.67
				C160.958,124.256,160.199,125.896,159.238,126.446z M187.298,92.456c-2.4,1.39-4.5,0.6-5.63-1.72c-0.57-1.16-0.89-2.7-0.89-4.55
				c0-5.54,2.92-11.71,6.52-13.79c0.54-0.31,1.07-0.52,1.57-0.62c2.84-0.56,4.94,2.17,4.94,6.89
				C193.809,84.206,190.899,90.376,187.298,92.456z M215.628,93.886c-0.96,0.55-1.73-0.19-1.73-1.65c0-1.47,0.77-3.1,1.73-3.65
				c0.95-0.55,1.72,0.19,1.72,1.66C217.348,91.706,216.579,93.336,215.628,93.886z"/>
			<path id="XMLID_483_" style="fill:#263238;" d="M193.809,78.666c0,5.54-2.91,11.71-6.51,13.79c-2.4,1.39-4.5,0.6-5.63-1.72
				c0.51-0.1,1.03-0.3,1.58-0.62c3.6-2.08,6.51-8.25,6.51-13.79c0-1.85-0.32-3.39-0.89-4.55
				C191.708,71.216,193.809,73.946,193.809,78.666z"/>
			<path id="XMLID_508_" style="fill:#263238;" d="M159.242,126.441c-0.952,0.55-1.728-0.189-1.728-1.653
				c0-1.465,0.776-3.109,1.728-3.659c0.952-0.549,1.722,0.201,1.722,1.667C160.964,124.26,160.193,125.892,159.242,126.441"/>
			<path id="XMLID_510_" style="fill:#263238;" d="M215.624,93.893c-0.952,0.55-1.728-0.189-1.728-1.653
				c0-1.465,0.776-3.109,1.728-3.659c0.952-0.549,1.722,0.202,1.722,1.667C217.346,91.712,216.576,93.343,215.624,93.893"/>
		</g>
		<g id="XMLID_481_">
			<path id="XMLID_479_" style="fill:#F5F5F5;" d="M111.434,160.552l151.76-87.618c0.717-0.414,1.881-0.414,2.598,0l1.464,0.845
				c0.717,0.414,1.299,1.421,1.299,2.25v231.523c0,0.828-0.582,1.836-1.299,2.25L115.499,397.42c-0.717,0.414-1.881,0.414-2.598,0
				l-1.467-0.847c-0.717-0.414-1.299-1.422-1.299-2.25V162.802C110.135,161.974,110.716,160.966,111.434,160.552z"/>
			<path id="XMLID_548_" style="fill:#FAFAFA;" d="M268.509,75.636c-0.16-0.53-0.66-0.7-1.25-0.36l-151.76,87.62
				c-0.36,0.21-0.69,0.56-0.92,0.97l-4.06-2.34c0.23-0.41,0.56-0.77,0.92-0.97l151.76-87.62c0.71-0.42,1.88-0.42,2.59,0l1.47,0.84
				C267.868,74.136,268.379,74.906,268.509,75.636z"/>
			<path id="XMLID_549_" style="fill:#E0E0E0;" d="M115.189,397.556c-0.15,0.06-0.31,0.1-0.48,0.13c-0.08,0.01-0.17,0.02-0.25,0.03
				c-0.26,0.02-0.53,0.01-0.79-0.03c-0.17-0.03-0.33-0.07-0.48-0.13c-0.1-0.04-0.2-0.09-0.29-0.14l-1.46-0.84
				c-0.72-0.42-1.3-1.42-1.3-2.25v-231.52c0-0.42,0.14-0.88,0.38-1.28l4.06,2.34c-0.23,0.41-0.38,0.87-0.38,1.28v231.52
				C114.199,397.376,114.618,397.726,115.189,397.556z"/>
		</g>
		<g id="XMLID_422_">
			<path id="XMLID_484_" style="fill:#455A64;" d="M234.368,105.726l-4.04-2.34c-1.04-0.6-2.41-0.61-4.06,0.12
				c-4.72,2.08-6.76,3.02-9.2,4.04c-0.56,0.23-1.13,0.46-1.76,0.71c-0.95,0.38-2.86,0.06-2.27-3.27l6.27-16.89
				c-0.03-0.02-0.06-0.03-0.09-0.05l-3.97-2.3c-0.18-0.11-0.4-0.19-0.66-0.23c-0.13-0.02-0.28-0.04-0.44-0.04
				c-2.57-0.06-3.3-16.62-3.32-17.13c0-0.01,0-0.01,0-0.01l-0.18-0.1l-3.93-2.26c-0.65-0.38-1.41-0.57-2.24-0.57
				c-1.1,0-2.35,0.34-3.72,1.05c-6.17,3.24-12.4,12.84-13.92,21.46c-0.96,5.44-6.43,13.81-9.59,16.89c-3.17,3.1-3.38,5.66-3.38,5.66
				l-2.46,13.94l-0.79,4.46c-0.58,3.33-3.99,6.55-3.99,6.55l-12.73,9.54c-7.97,6.62-10.22,13.3-11.75,21.57
				c0,0.01-0.01,0.05-0.01,0.06c-0.05,0.29,0.01,0.49,0.14,0.57c0.05,0.03,0.1,0.03,0.14,0.01c0,0,0,0,0-0.01
				c0.01,0.01,0.01,0.01,0.02,0l1.63-0.93l87.58-50.51c0.35-0.18,0.71-0.74,0.8-1.22c0.01-0.01,0.01-0.03,0.02-0.04
				c0-0.02-0.01-0.02,0-0.03c0.5-3.02,1.96-8.67,1.96-8.67C234.409,105.746,234.389,105.736,234.368,105.726z M209.048,80.136
				c-0.94,5.3-4.76,11.21-8.56,13.2c-2.62,1.37-4.53,0.52-5.17-1.89c-1.16,0.36-2.14,0.21-2.87-0.37
				c-1.22-0.96,9.94-20.11,10.85-19.69c0.81,0.37,1.39,1.16,1.68,2.29C208.109,72.726,209.889,75.376,209.048,80.136z"/>
			<path id="XMLID_511_" style="opacity:0.5;fill:#37474F;" d="M154.818,154.266l-6.379-3.683c-3.704,4.872-5.19,9.995-6.29,15.943
				c0,0.01-0.01,0.05-0.01,0.06c-0.05,0.29,0.01,0.49,0.14,0.57c0.05,0.03,0.1,0.03,0.14,0.01c0,0,0,0,0-0.01
				c0.01,0.01,0.01,0.01,0.02,0l0.018-0.01l5.033-3.988L154.818,154.266z"/>
			<path id="XMLID_500_" style="opacity:0.5;fill:#37474F;" d="M170.196,130.311l8.995,5.193l4.061-23.453l-8.111-4.683
				c-1.163,1.829-1.272,3.097-1.272,3.097l-2.46,13.94l-0.79,4.46C170.534,129.354,170.383,129.838,170.196,130.311z"/>
			<path id="XMLID_487_" style="opacity:0.5;fill:#37474F;" d="M191.104,76.717c-2.051,3.516-3.604,7.45-4.265,11.199
				c-0.411,2.329-1.652,5.195-3.181,7.954l7.719,4.456l3.836-8.858c-1.112,0.317-2.057,0.169-2.763-0.392
				c-0.627-0.494,2.019-5.796,4.862-10.775L191.104,76.717z"/>
			<path id="XMLID_2732_" style="fill:#37474F;" d="M234.429,105.756c-0.02-0.01-0.04-0.02-0.06-0.03c-1.04-0.59-2.4-0.59-4.04,0.13
				c-5.79,2.55-7.54,3.39-10.97,4.75c-0.92,0.37-2.77,0.07-2.29-3.06c0-0.07,0.02-0.14,0.03-0.21l0.79-4.46l2.19-12.15
				c0,0,0.5-1.91-0.77-2.63c-0.03-0.02-0.06-0.03-0.09-0.05c-0.26-0.13-0.59-0.21-1.01-0.22c-1.22-0.03-2.6-0.87-3.62-2.31
				c-1.17-1.64-1.87-4.06-1.36-6.95c0.92-5.21-0.09-8.86-2.4-10.22c-0.06-0.04-0.12-0.08-0.18-0.11c-1.49-0.79-3.49-0.66-5.83,0.57
				c-6.17,3.24-12.4,12.84-13.92,21.46c-0.96,5.44-6.43,13.81-9.59,16.89c-3.17,3.1-3.38,5.66-3.38,5.66l-2.46,13.94l-0.79,4.46
				c-0.58,3.33-4,6.55-4,6.55l-12.72,9.54c-5.98,4.97-8.82,10.18-10.47,15.85c0,0-4.77,3.7-5.07,4c0,0.01,0,0.01,0,0.01
				c-0.01,0.01-0.01,0.01,0.01,0l0.01-0.01l1.63-0.93l87.83-50.49c0,0,1.01-0.55,1.23-0.69c0.22-0.13,3.76-3.48,3.76-3.48
				C236.738,108.686,235.899,106.636,234.429,105.756z M209.048,80.136c-0.94,5.3-4.76,11.21-8.56,13.2
				c-2.62,1.37-4.53,0.52-5.17-1.89c-0.27-1.08-0.3-2.47-0.01-4.11c0.94-5.3,4.77-11.21,8.57-13.19c0.38-0.2,0.75-0.36,1.1-0.47
				C208.109,72.726,209.889,75.376,209.048,80.136z"/>
			<path id="XMLID_488_" style="fill:#263238;" d="M209.048,80.136c-0.94,5.3-4.76,11.21-8.56,13.2c-2.62,1.37-4.53,0.52-5.17-1.89
				c0.35-0.11,0.72-0.26,1.11-0.46c3.8-1.99,7.63-7.9,8.56-13.2c0.29-1.64,0.27-3.03-0.01-4.11
				C208.109,72.726,209.889,75.376,209.048,80.136z"/>
			<path id="XMLID_221_" style="fill:#263238;" d="M205.384,73.904L205.384,73.904c0.813,0,1.411,0.29,1.831,0.886
				c1.574,2.236,0.066,7.94-0.586,9.762c-0.909,2.539-6.796,8.489-8.422,8.489c-1.439-0.068-2.49-1.464-2.657-1.699
				c-0.263-1.089-0.262-2.457,0.004-3.962c0.928-5.234,4.714-11.071,8.44-13.013c0.366-0.193,0.714-0.342,1.034-0.445
				C205.152,73.91,205.27,73.904,205.384,73.904 M205.383,73.654c-0.129,0-0.264,0.007-0.405,0.021c-0.35,0.11-0.72,0.27-1.1,0.47
				c-3.8,1.98-7.63,7.89-8.57,13.19c-0.29,1.64-0.26,3.03,0.01,4.11c0,0,1.163,1.763,2.877,1.845
				c0.011,0.001,0.023,0.001,0.035,0.001c1.759,0,7.685-6.003,8.635-8.655C207.794,82.041,209.862,73.654,205.383,73.654
				L205.383,73.654z"/>
			<path id="XMLID_486_" style="fill:#263238;" d="M142.43,167.167l89.465-51.43c0,0,1.014-0.554,1.232-0.687
				c0.218-0.133,3.759-3.488,3.759-3.488l-89.397,51.595C147.49,163.158,142.074,167.353,142.43,167.167z"/>
		</g>
		<g id="XMLID_832_">
			<g id="XMLID_1191_">
				<g id="XMLID_1198_">
					<polygon id="XMLID_1202_" style="fill:#FAFAFA;" points="126.556,190.555 150.758,176.383 150.756,204.527 126.556,218.697 
											"/>
					<path id="XMLID_1199_" style="fill:#455A64;" d="M127.556,191.128v25.825l22.2-12.999l0.003-25.826L127.556,191.128z
						 M126.556,219.698c-0.172,0-0.343-0.044-0.497-0.132c-0.312-0.178-0.503-0.509-0.503-0.868v-28.143
						c0-0.355,0.188-0.684,0.495-0.863l24.203-14.172c0.309-0.18,0.693-0.183,1.002-0.005c0.312,0.178,0.503,0.509,0.503,0.868
						l-0.003,28.144c0,0.355-0.188,0.684-0.495,0.863l-24.2,14.171C126.905,219.652,126.731,219.698,126.556,219.698z"/>
				</g>
				<g id="XMLID_1194_">
					<path id="XMLID_1197_" style="fill:#E0E0E0;" d="M162.942,170.337v2.035c0,1.105,0.775,1.552,1.732,1l85.901-49.588
						c0.957-0.552,1.732-1.895,1.732-3v-2.042c0-1.105-0.775-1.552-1.732-1l-85.901,49.594
						C163.717,167.889,162.942,169.233,162.942,170.337z"/>
					<path id="XMLID_1196_" style="fill:#E0E0E0;" d="M162.942,182.63v2.036c0,1.105,0.775,1.552,1.732,1l85.901-49.588
						c0.957-0.552,1.732-1.895,1.732-3v-2.042c0-1.105-0.775-1.552-1.732-1l-85.901,49.594
						C163.717,180.182,162.942,181.525,162.942,182.63z"/>
					<path id="XMLID_1195_" style="fill:#E0E0E0;" d="M162.942,194.854v2.035c0,1.105,0.775,1.552,1.732,1l85.901-49.588
						c0.957-0.552,1.732-1.895,1.732-3v-2.042c0-1.105-0.775-1.552-1.732-1l-85.901,49.594
						C163.717,192.406,162.942,193.75,162.942,194.854z"/>
				</g>
				<g id="XMLID_1192_">
					<polygon id="XMLID_1193_" style="fill:#27DEBF;" points="139.063,204.942 133.434,199.525 135.858,194.393 139.063,197.477 
						152.393,169.258 154.817,171.591 					"/>
				</g>
			</g>
			<g id="XMLID_1180_">
				<g id="XMLID_1186_">
					<polygon id="XMLID_1190_" style="fill:#FAFAFA;" points="126.556,242.151 150.758,227.979 150.756,256.123 126.556,270.294 
											"/>
					<path id="XMLID_1187_" style="fill:#455A64;" d="M127.556,242.725v25.825l22.2-13l0.003-25.826L127.556,242.725z
						 M126.556,271.294c-0.172,0-0.343-0.044-0.497-0.132c-0.312-0.178-0.503-0.509-0.503-0.868v-28.143
						c0-0.355,0.188-0.684,0.495-0.863l24.203-14.172c0.309-0.18,0.693-0.183,1.002-0.005c0.312,0.178,0.503,0.509,0.503,0.868
						l-0.003,28.144c0,0.355-0.188,0.684-0.495,0.863l-24.2,14.171C126.905,271.248,126.731,271.294,126.556,271.294z"/>
				</g>
				<g id="XMLID_1182_">
					<path id="XMLID_1185_" style="fill:#E0E0E0;" d="M162.942,221.934v2.035c0,1.105,0.775,1.552,1.732,1l85.901-49.588
						c0.957-0.552,1.732-1.895,1.732-3v-2.043c0-1.105-0.775-1.552-1.732-1l-85.901,49.594
						C163.717,219.486,162.942,220.829,162.942,221.934z"/>
					<path id="XMLID_1184_" style="fill:#E0E0E0;" d="M162.942,234.226v2.035c0,1.105,0.775,1.552,1.732,1l85.901-49.588
						c0.957-0.552,1.732-1.895,1.732-3v-2.042c0-1.105-0.775-1.552-1.732-1l-85.901,49.594
						C163.717,231.778,162.942,233.121,162.942,234.226z"/>
					<path id="XMLID_1183_" style="fill:#E0E0E0;" d="M162.942,246.451v2.036c0,1.105,0.775,1.552,1.732,1l85.901-49.588
						c0.957-0.552,1.732-1.895,1.732-3v-2.043c0-1.105-0.775-1.552-1.732-1l-85.901,49.594
						C163.717,244.003,162.942,245.346,162.942,246.451z"/>
				</g>
				<polygon id="XMLID_1181_" style="fill:#27DEBF;" points="139.063,256.538 133.434,251.121 135.858,245.989 139.063,249.073 
					152.393,220.854 154.817,223.188 				"/>
			</g>
			<g id="XMLID_1169_">
				<g id="XMLID_1175_">
					<polygon id="XMLID_1179_" style="fill:#FAFAFA;" points="126.556,293.748 150.758,279.576 150.756,307.719 126.556,321.89 
											"/>
					<path id="XMLID_1176_" style="fill:#455A64;" d="M127.556,294.321v25.825l22.2-12.999l0.003-25.826L127.556,294.321z
						 M126.556,322.89c-0.172,0-0.343-0.044-0.497-0.132c-0.312-0.178-0.503-0.509-0.503-0.868v-28.143
						c0-0.355,0.188-0.684,0.495-0.863l24.203-14.172c0.309-0.18,0.693-0.183,1.002-0.005c0.312,0.178,0.503,0.509,0.503,0.868
						l-0.003,28.144c0,0.355-0.188,0.684-0.495,0.863l-24.2,14.171C126.905,322.844,126.731,322.89,126.556,322.89z"/>
				</g>
				<g id="XMLID_1171_">
					<path id="XMLID_1174_" style="fill:#E0E0E0;" d="M162.942,273.53v2.036c0,1.104,0.775,1.552,1.732,1l85.901-49.587
						c0.957-0.552,1.732-1.895,1.732-3v-2.043c0-1.105-0.775-1.552-1.732-1l-85.901,49.594
						C163.717,271.082,162.942,272.425,162.942,273.53z"/>
					<path id="XMLID_1173_" style="fill:#E0E0E0;" d="M162.942,285.822v2.036c0,1.105,0.775,1.552,1.732,1l85.901-49.588
						c0.957-0.552,1.732-1.895,1.732-3v-2.042c0-1.105-0.775-1.552-1.732-1l-85.901,49.594
						C163.717,283.375,162.942,284.718,162.942,285.822z"/>
					<path id="XMLID_1172_" style="fill:#E0E0E0;" d="M162.942,298.047v2.035c0,1.105,0.775,1.552,1.732,1l85.901-49.587
						c0.957-0.552,1.732-1.895,1.732-3v-2.042c0-1.105-0.775-1.552-1.732-1l-85.901,49.594
						C163.717,295.599,162.942,296.942,162.942,298.047z"/>
				</g>
			</g>
			<g id="XMLID_1110_">
				<g id="XMLID_1164_">
					<polygon id="XMLID_1168_" style="fill:#FAFAFA;" points="126.556,345.344 150.758,331.172 150.756,359.316 126.556,373.486 
											"/>
					<path id="XMLID_1165_" style="fill:#455A64;" d="M127.556,345.917v25.825l22.2-13l0.003-25.826L127.556,345.917z
						 M126.556,374.487c-0.172,0-0.343-0.044-0.497-0.132c-0.312-0.178-0.503-0.509-0.503-0.868v-28.143
						c0-0.355,0.188-0.684,0.495-0.863l24.203-14.172c0.309-0.18,0.693-0.183,1.002-0.005c0.312,0.178,0.503,0.509,0.503,0.868
						l-0.003,28.144c0,0.355-0.188,0.684-0.495,0.863l-24.2,14.171C126.905,374.441,126.731,374.487,126.556,374.487z"/>
				</g>
				<g id="XMLID_1114_">
					<path id="XMLID_1163_" style="fill:#E0E0E0;" d="M162.942,325.126v2.036c0,1.105,0.775,1.552,1.732,1l85.901-49.587
						c0.957-0.552,1.732-1.895,1.732-3v-2.043c0-1.104-0.775-1.552-1.732-1l-85.901,49.594
						C163.717,322.678,162.942,324.022,162.942,325.126z"/>
					<path id="XMLID_1118_" style="fill:#E0E0E0;" d="M162.942,337.419v2.035c0,1.105,0.775,1.552,1.732,1l85.901-49.587
						c0.957-0.552,1.732-1.895,1.732-3v-2.042c0-1.105-0.775-1.552-1.732-1l-85.901,49.594
						C163.717,334.971,162.942,336.314,162.942,337.419z"/>
					<path id="XMLID_1117_" style="fill:#E0E0E0;" d="M162.942,349.643v2.036c0,1.105,0.775,1.552,1.732,1l85.901-49.587
						c0.957-0.552,1.732-1.895,1.732-3v-2.042c0-1.105-0.775-1.552-1.732-1l-85.901,49.594
						C163.717,347.195,162.942,348.539,162.942,349.643z"/>
				</g>
			</g>
		</g>
	</g>
</g>
<g id="Character">
	<g id="XMLID_1763_">
		<g id="Character_Boy">
			<g id="XMLID_551_">
				<g id="XMLID_628_">
					
						<ellipse id="XMLID_1031_" transform="matrix(0.1602 -0.9871 0.9871 0.1602 143.9469 522.5613)" style="fill:#263238;" cx="379.072" cy="176.686" rx="10.846" ry="10.846"/>
					<g id="XMLID_631_">
						<g id="XMLID_636_">
							<g id="XMLID_831_">
								<path id="XMLID_1422_" style="fill:#FFA8A7;" d="M366.159,210.552l-15.476,18.041l-20.789-9.019l-0.409,11.257
									c0,0,17.027,7.954,19.639,8.493c2.612,0.538,5.142,1.119,7.429-0.629c2.661-2.034,12.211-13.06,12.211-13.06
									L366.159,210.552z"/>
								<g id="XMLID_1421_">
									<path id="XMLID_1419_" style="fill:#E0E0E0;" d="M380.214,201.317c-6.168-0.401-11.056,4.287-14.624,8.483
										c-3.567,4.196-8.192,10.802-8.192,10.802s2.492,7.268,9.053,9.47l11.305-13.437L380.214,201.317z"/>
								</g>
								<rect id="XMLID_1029_" x="397.405" y="360.208" style="fill:#FFA8A7;" width="7.64" height="13.079"/>
								<polygon id="XMLID_1025_" style="fill:#FFA8A7;" points="378.556,364.137 370.921,364.399 370.539,350.558 378.174,350.296 
																	"/>
								<path id="XMLID_1011_" style="fill:#37474F;" d="M404.543,256.535c0,7.295,0.943,51.505,0.943,51.505
									c0.178,2.099,2.146,5.97,1.72,14.033c-0.579,10.953-1.525,39.426-1.525,39.426s-3.583,3.551-8.64,0
									c0,0-6.917-39.388-8.287-50.242c-1.195-9.473-3.222-35.207-3.222-35.207l-4.238,35.717c0,0,1.246,7.121,1.52,12.146
									c0.274,5.026-4.138,30.533-4.138,30.533s-3.884,2.684-8.313,0.317c0,0-3.296-38.892-4.084-43.431
									c-0.788-4.539,2.53-54.798,2.53-54.798H404.543z"/>
								<path id="XMLID_1010_" style="fill:#F0F0F0;" d="M397.204,203.759c3.329,0.591,5.983,3.114,6.712,6.415
									c0.362,1.639,0.627,3.594,0.627,5.8v14.969v25.591c-5.357,5.828-24.034,8.543-35.733,0c0,0,0.23-35.826,1.106-41.712
									c1.522-10.225,6.418-13.873,11.333-13.491l11.793,1.687L397.204,203.759z"/>
								<g id="XMLID_950_">
									<g id="XMLID_965_">
										<path id="XMLID_1009_" style="fill:#263238;" d="M397.82,184.398c0,0-1.757,8.257-2.462,9.614
											c-0.705,1.357-2.161,1.742-2.161,1.742l0.123-5.809L397.82,184.398z"/>
										<path id="XMLID_985_" style="fill:#263238;" d="M395.615,172.568c0,0,1.893-0.324,3.368,1.184
											c1.447,1.479,0.639,6.11-1.163,10.645l-3.311,0.38L395.615,172.568z"/>
										<path id="XMLID_984_" style="fill:#FFA8A7;" d="M393.517,184.781c0.664,0.396,1.611-0.879,2.43-1.735
											c0.819-0.856,3.491-2.027,4.824,0.782c1.358,2.863-1.177,6.645-3.281,7.306c-3.626,1.138-4.17-1.188-4.17-1.188
											l-0.277,13.079c0,0-2.374,5.809-8.803,6.68c-6.429,0.872-5.105-4.429-2.994-7.026l0.01-3.981c0,0-3.285,0.499-4.888,0.251
											c-2.667-0.412-4.344-2.516-5.153-5.403c-1.299-4.636-1.792-8.379-0.69-17.497c1.208-9.994,12.832-10.098,19.109-6.147
											C395.911,173.853,393.517,184.781,393.517,184.781z"/>
										<path id="XMLID_983_" style="fill:#263238;" d="M393.517,185.897c0.334,0.006,1.603-2.1,2.43-2.852
											c1.145-1.042-0.332-10.477-0.332-10.477s1.1-2.345-1.105-4.772c-1.569-1.726-4.19-1.918-8.666-2.622
											c-2.349-0.369-5.909-1.026-8.253-1.462c-2.8-0.521-5.118-1.072-7.095,0.646c-1.539,1.337-2.201,3.7-1.373,5.563
											c0.194,0.437,0.475,0.831,0.795,1.187c0.567,0.63,1.208,1.126,2.015,1.388c0,0,1.221,1.083,5.469,1.6
											c4.247,0.517,10.863-0.099,11.768-0.223c1.232-0.169,1.494,1.025,2.159,4.286
											C391.911,181.024,392.395,185.876,393.517,185.897z"/>
										<path id="XMLID_982_" style="fill:#263238;" d="M395.608,173.302l4.014-2.155c-0.57-1.15-1.93-1.6-3.038-1.005
											C395.475,170.738,395.039,172.152,395.608,173.302z"/>
										<path id="XMLID_966_" style="fill:#F28F8F;" d="M381.256,198.698c0,0,5.953-1.199,8.033-2.305
											c1.393-0.74,2.54-2.024,2.877-2.846c0,0-0.39,1.766-1.634,3.357c-1.522,1.946-9.276,3.378-9.276,3.378L381.256,198.698z"
											/>
									</g>
									<g id="XMLID_951_">
										<path id="XMLID_964_" style="fill:#263238;" d="M382.687,183.292c0,0.685,0.534,1.238,1.193,1.236
											c0.659-0.002,1.193-0.558,1.193-1.243c0-0.684-0.534-1.238-1.193-1.236C383.221,182.051,382.687,182.608,382.687,183.292z
											"/>
										<path id="XMLID_963_" style="fill:#263238;" d="M383.952,178.789l2.552,1.408c0.376-0.733,0.11-1.643-0.595-2.032
											C385.204,177.776,384.328,178.055,383.952,178.789z"/>
										<path id="XMLID_961_" style="fill:#F28F8F;" d="M381.795,191.532l-2.723,1.022c0.27,0.781,1.098,1.185,1.85,0.903
											C381.674,193.174,382.065,192.313,381.795,191.532z"/>
										<path id="XMLID_960_" style="fill:#263238;" d="M372.05,179.782l2.327-1.792c-0.475-0.666-1.38-0.805-2.023-0.31
											C371.711,178.174,371.575,179.115,372.05,179.782z"/>
										<path id="XMLID_953_" style="fill:#263238;" d="M372.766,182.953c0,0.685,0.534,1.238,1.193,1.236
											c0.659-0.002,1.193-0.558,1.193-1.243c0-0.684-0.534-1.238-1.193-1.236C373.3,181.712,372.766,182.268,372.766,182.953z"
											/>
										<polygon id="XMLID_952_" style="fill:#F28F8F;" points="378.843,181.821 378.452,188.995 374.706,187.718 										"/>
									</g>
								</g>
								<path id="XMLID_949_" style="fill:#263238;" d="M397.405,369.516v-1.093c-0.731,0.318-2.43,6.798-5.461,9.563
									c-2.41,2.198-5.697,4.737-6.533,7.187c-0.87,2.548,4.578,3.955,6.829,3.557c2.616-0.463,7.15-2.305,8.288-4.013
									c1.138-1.707,1.671-4.226,2.596-5.478c0.925-1.251,3.057-2.648,3.557-4.097c0.275-0.796-0.052-2.538-0.437-4.011
									c-0.354-1.351-0.738-2.836-1.199-2.709c-0.001,0.165,0,0.833,0,0.833c-0.555,0.615-2.089,1.225-3.82,1.291
									C400.108,370.59,397.396,370.368,397.405,369.516z"/>
								<path id="XMLID_833_" style="fill:#263238;" d="M370.84,362.043c-0.397,0.014-0.72,0.573-1.595,1.521
									c-1.058,1.145-2.787,2.379-4.494,3.233c-2.861,1.432-8.423,3.635-10.94,4.769c-1.573,0.708-1.499,2.608,0.127,3.689
									c1.626,1.081,5.55,1.86,10.262,0.806c2.567-0.574,5.909-2.945,8.024-2.817c2.115,0.128,6.073,0.098,7.634-0.979
									c1.561-1.076,0.937-3.375,0.495-5.349c-0.481-2.155-1.171-5.453-1.884-5.306l0.023,0.678
									c-0.919,1.391-5.595,1.959-7.613,0.935L370.84,362.043z"/>
							</g>
						</g>
					</g>
					<path id="XMLID_630_" style="fill:#263238;" d="M385.533,276.05c0,0-6.106-1.72-10.638-6.1c0,0,2.053,3.844,8.157,7.421
						l-1.757,34.396L385.533,276.05z"/>
				</g>
			</g>
		</g>
		<g id="XMLID_485_">
			<g id="XMLID_513_">
				<g id="XMLID_515_">
					<path id="XMLID_1047_" style="fill:#FFA8A7;" d="M353.093,329.009l-12.862,37.528c-0.374,1.091-1.919,1.086-2.286-0.007
						l-12.695-37.827L353.093,329.009z"/>
					<path id="XMLID_1044_" style="fill:#263238;" d="M337.945,366.53c0.367,1.094,1.912,1.098,2.286,0.007l2.511-7.327l0,0
						c-2.207,1.184-4.89,1.035-6.952-0.386l-0.56-0.386L337.945,366.53z"/>
					<path id="XMLID_1043_" style="fill:#27DEBF;" d="M325.736,161.355l-0.008,3.672l-0.029,4.431L325.246,328.7
						c2.942,3.365,7.302,5.072,11.724,5.517c6.733,0.7,13.637-1.506,16.104-5.21l0.448-159.145l0.023-8.47
						C353.226,166.875,325.491,166.859,325.736,161.355z"/>
					<path id="XMLID_1036_" style="fill:#EBEBEB;" d="M325.652,175.334l-0.009,8.2c-0.082,2.377,4.982,3.912,10.827,4.45
						c7.762,0.735,16.9-1.368,17.014-4.518l0.017-6.044l-0.032-2.161c-0.114,3.15-9.253,5.259-17.015,4.524
						c-5.6-0.523-10.501-1.978-10.781-4.195l-0.001-0.025C325.645,175.494,325.643,175.42,325.652,175.334z"/>
					<path id="XMLID_1033_" style="fill:#27DEBF;" d="M325.668,177.381c-0.2,5.52,27.623,5.45,27.823-0.07l0.035-8.208
						c-0.2,5.52-28.02,5.589-27.82,0.069L325.668,177.381z"/>
					<path id="XMLID_1032_" style="fill:#EBEBEB;" d="M325.736,161.355l-0.037,8.103c-0.236,5.418,26.612,5.577,27.824,0.404
						c0.033-0.087,0.041-0.197,0.049-0.308l-0.027-8.162C353.226,166.875,325.491,166.859,325.736,161.355z"/>
					<path id="XMLID_550_" style="opacity:0.1;" d="M353.523,169.862l0.023-8.47c-0.144,2.478-5.823,4.323-12.121,4.55
						l-0.449,168.403l-0.745,32.191l12.862-37.528l-0.019,0c0,0,0.001-0.001,0.001-0.001L353.523,169.862z"/>
					<path id="XMLID_547_" style="fill:#F28F8F;" d="M325.869,126.974l-0.134,34.381c-0.107,2.354,4.896,3.903,10.693,4.467
						c7.763,0.759,16.941-1.29,17.117-4.43c0.012-0.012,0.012-0.012,0.011-0.037l0.122-34.495c0-6.863-13.917-8.585-22.229-5.726
						C328.332,122.182,326.115,124.089,325.869,126.974z"/>
				</g>
			</g>
		</g>
		<g id="XMLID_1762_">
			<path id="XMLID_1205_" style="fill:#FFA8A7;" d="M416.174,267.942c-0.337,3.312-0.718,7.782-1.377,10.325
				c-2.287,8.825-5.22,11.469-9.126,11.73c-6.234,0.416-6.275-1.917-3.475-5.934c2.066-2.964,2.782-5.738,2.782-5.738
				c-1.227,0.921-2.213,1.625-2.994,1.93c-1.553,0.605-2.548-0.224-2.809-0.762c-0.204-0.419,0.876-0.841,2.071-2.298
				c1.526-1.861,2.306-3.341,4.403-4.884c0.781-0.575,1.025-1.634,1.263-2.575c0.317-1.255,0.534-21.266-0.595-25.409l-5.363-19.244
				c-4.361-2.995-9.008-17.806-2.377-20.956c6.227,0.7,10.763,8.84,17.549,33.978C417.327,242.555,416.872,261.096,416.174,267.942z
				"/>
			<path id="XMLID_1420_" style="fill:#E0E0E0;" d="M397.204,203.759c0,0-2.518,1.848-2.694,6.042
				c-0.176,4.194,1.79,10.23,2.98,14.014c1.19,3.783,3.663,10.625,3.663,10.625s10.244-1.174,12.579-7.188
				c0,0-4.801-15.528-9.418-20.582C401.154,203.208,397.204,203.759,397.204,203.759z"/>
		</g>
		<path id="XMLID_1761_" style="fill:#FFA8A7;" d="M331.597,207.521c0,0,2.498-1.987,7.246-1.206
			c2.297,0.378,1.419,9.074-5.974,11.497c-4.81,1.576-5.787,0.764-7.339,4.722c0,0-2.903-0.603-2.197-5.027
			c0.707-4.424,2.637-8.457,5.861-12.262c2.12-2.503,2.261-4.608,3.301-3.895c1.176,0.806,0.456,2.872,0.456,2.872L331.597,207.521z
			"/>
	</g>
</g>
</svg>
